<svg width="101" height="46" viewBox="0 0 101 46" fill="none" xmlns="http://www.w3.org/2000/svg">
<path d="M2.39062 36C1.29688 36 0.75 35.4141 0.75 34.2422V4.14844C0.75 2.97656 1.29688 2.39062 2.39062 2.39062H6.1875C7.125 2.39062 7.59375 2.97656 7.59375 4.14844V30.1875H21.2578C22.4297 30.1875 23.0156 30.6953 23.0156 31.7109V34.4766C23.0156 35.4922 22.4297 36 21.2578 36H2.39062ZM24.9609 13.2188C24.5391 12 24.7969 11.3906 25.7344 11.3906H29.9297C30.6484 11.3906 31.1172 11.7891 31.3359 12.5859L34.875 25.6875C35.0469 26.2969 35.1953 27.0859 35.3203 28.0547C35.4609 29.0078 35.5312 29.6172 35.5312 29.8828H35.6719C35.8594 29.0547 35.9922 28.3984 36.0703 27.9141C36.1641 27.4141 36.4062 26.4531 36.7969 25.0312L40.1484 12.5859C40.3672 11.7891 40.8359 11.3906 41.5547 11.3906H45.75C46.6719 11.3906 46.9297 12 46.5234 13.2188L38.625 36.9844C37.7031 39.7656 36.5703 41.9375 35.2266 43.5C33.8828 45.0625 32.0156 45.8438 29.625 45.8438C28.3125 45.8438 27.1406 45.7344 26.1094 45.5156C25.5156 45.3906 25.2891 44.9844 25.4297 44.2969L25.9453 41.7188C26.0859 41.0469 26.4844 40.8125 27.1406 41.0156C27.625 41.1719 28.0781 41.25 28.5 41.25C29.7656 41.25 30.7266 40.6484 31.3828 39.4453C32.0547 38.2422 32.5 37.2109 32.7188 36.3516L32.7891 36L24.9609 13.2188ZM48.8672 16.0781C47.9453 16.0781 47.4844 15.6875 47.4844 14.9062V12.5625C47.4844 11.7813 47.9453 11.3906 48.8672 11.3906H50.1797V8.10938C50.1797 5.23437 51 3.32031 52.6406 2.36719C54.2812 1.41406 56.2344 0.9375 58.5 0.9375C59.5781 0.9375 60.5 1 61.2656 1.125C62.0469 1.25 62.7344 1.40625 63.3281 1.59375C63.8906 1.78125 64.0938 2.17188 63.9375 2.76562L63.2344 5.41406C63.0938 5.92969 62.7344 6.08594 62.1562 5.88281C61.8125 5.75781 61.3281 5.67188 60.7031 5.625C60.0938 5.5625 59.6094 5.53125 59.25 5.53125C58.1094 5.53125 57.4062 5.92969 57.1406 6.72656C56.875 7.52344 56.7422 8.76562 56.7422 10.4531V11.3906H59.8359C60.7578 11.3906 61.2188 11.7813 61.2188 12.5625V14.9062C61.2188 15.6875 60.7578 16.0781 59.8359 16.0781H56.7422V34.5938C56.7422 35.5312 56.2734 36 55.3359 36H51.5859C50.6484 36 50.1797 35.5312 50.1797 34.5938V16.0781H48.8672ZM65.625 25.7812V12.7969C65.625 11.8594 66.0938 11.3906 67.0312 11.3906H70.7812C71.7188 11.3906 72.1875 11.8594 72.1875 12.7969V24.0938C72.1875 27.5 72.4219 29.6484 72.8906 30.5391C73.3594 31.4297 74.3438 31.875 75.8438 31.875C77.4375 31.875 78.6484 31.2422 79.4766 29.9766C80.3047 28.6953 80.7188 26.0469 80.7188 22.0312V12.7969C80.7188 11.8594 81.1875 11.3906 82.125 11.3906H85.875C86.8125 11.3906 87.2812 11.8594 87.2812 12.7969V34.5938C87.2812 35.5312 86.8125 36 85.875 36H82.1719C81.2344 36 80.7656 35.5312 80.7656 34.5938V33.2344H80.6719C79.9531 34.4688 79.0391 35.3203 77.9297 35.7891C76.8203 36.2422 75.5078 36.4688 73.9922 36.4688C71.6016 36.4688 69.6094 35.7031 68.0156 34.1719C66.4219 32.6406 65.625 29.8438 65.625 25.7812ZM95.0625 36C94.125 36 93.6562 35.5312 93.6562 34.5938V6.91406C93.6562 6.21094 93.8203 5.57031 94.1484 4.99219L95.9531 1.82812C96.2969 1.23438 96.7031 0.9375 97.1719 0.9375H98.8125C99.75 0.9375 100.219 1.40625 100.219 2.34375V34.5938C100.219 35.5312 99.75 36 98.8125 36H95.0625Z" fill="#B963D8"/>
</svg>
